<svg width="596" height="596" viewBox="0 0 596 596" fill="none" xmlns="http://www.w3.org/2000/svg">
<path d="M596 298C596 462.581 462.581 596 298 596C133.419 596 0 462.581 0 298C0 133.419 133.419 0 298 0C462.581 0 596 133.419 596 298ZM20 298C20 451.535 144.465 576 298 576C451.535 576 576 451.535 576 298C576 144.465 451.535 20 298 20C144.465 20 20 144.465 20 298Z" fill="#EBEBEB"/>
<path d="M568 298C568 447.117 447.117 568 298 568C148.883 568 28 447.117 28 298C28 148.883 148.883 28 298 28C447.117 28 568 148.883 568 298ZM48 298C48 436.071 159.929 548 298 548C436.071 548 548 436.071 548 298C548 159.929 436.071 48 298 48C159.929 48 48 159.929 48 298Z" fill="#EBEBEB"/>
<path d="M540 298C540 431.653 431.653 540 298 540C164.347 540 56 431.653 56 298C56 164.347 164.347 56 298 56C431.653 56 540 164.347 540 298ZM76 298C76 420.607 175.393 520 298 520C420.607 520 520 420.607 520 298C520 175.393 420.607 76 298 76C175.393 76 76 175.393 76 298Z" fill="#EBEBEB"/>
<path d="M512 298C512 416.189 416.189 512 298 512C179.811 512 84 416.189 84 298C84 179.811 179.811 84 298 84C416.189 84 512 179.811 512 298ZM104 298C104 405.143 190.857 492 298 492C405.143 492 492 405.143 492 298C492 190.857 405.143 104 298 104C190.857 104 104 190.857 104 298Z" fill="#EBEBEB"/>
<path d="M484 298C484 400.725 400.725 484 298 484C195.275 484 112 400.725 112 298C112 195.275 195.275 112 298 112C400.725 112 484 195.275 484 298ZM132 298C132 389.679 206.321 464 298 464C389.679 464 464 389.679 464 298C464 206.321 389.679 132 298 132C206.321 132 132 206.321 132 298Z" fill="#EBEBEB"/>
<path d="M298 10C298 4.47715 302.48 -0.0175082 308 0.167707C375.381 2.42868 440.12 27.486 491.536 71.399C545.49 117.48 581.231 181.301 592.331 251.383C603.431 321.464 589.161 393.206 552.087 453.705C515.013 514.203 457.569 559.489 390.087 581.415C322.605 603.341 249.514 600.469 183.96 573.316C118.407 546.163 64.6928 496.51 32.48 433.289C0.267269 370.068 -8.33029 297.427 8.23378 228.433C24.0184 162.686 61.6652 104.361 114.849 62.9263C119.205 59.5321 125.472 60.535 128.718 65.0031C131.964 69.4711 130.96 75.7114 126.612 79.1162C77.277 117.744 42.354 171.985 27.6812 233.102C12.2288 297.466 20.2493 365.231 50.3002 424.209C80.351 483.187 130.46 529.508 191.614 554.839C252.768 580.169 320.954 582.848 383.907 562.394C446.86 541.939 500.448 499.693 535.034 443.255C569.62 386.816 582.932 319.889 572.577 254.511C562.223 189.133 528.88 129.596 478.547 86.6071C430.752 45.787 370.617 22.4322 307.999 20.1798C302.48 19.9812 298 15.5228 298 10Z" fill="#FFC107"/>
<path d="M298 38C298 32.4772 302.48 27.9807 307.999 28.1851C364.374 30.2734 418.777 49.9788 463.485 84.6581C510.831 121.384 544.616 172.816 559.517 230.854C574.419 288.892 569.591 350.238 545.794 405.23C521.996 460.222 480.582 505.736 428.073 534.603C375.565 563.47 314.945 574.049 255.763 564.676C196.58 555.302 142.197 526.508 101.178 482.828C60.1601 439.148 34.8373 383.064 29.1983 323.409C23.8735 267.079 36.3858 210.587 64.8302 161.868C67.6149 157.099 73.8117 155.726 78.4748 158.685C83.1378 161.644 84.5002 167.814 81.7297 172.592C55.6555 217.556 44.2024 269.616 49.1095 321.527C54.3308 376.763 77.7779 428.692 115.758 469.137C153.738 509.581 204.093 536.243 258.891 544.922C313.69 553.601 369.819 543.805 418.438 517.077C467.058 490.348 505.404 448.206 527.439 397.287C549.473 346.368 553.944 289.566 540.146 235.828C526.348 182.089 495.066 134.466 451.227 100.461C410.026 68.5025 359.934 50.2777 307.998 48.1999C302.479 47.9791 298 43.5228 298 38Z" fill="#3B99FF"/>
<path d="M298 66C298 60.4772 302.48 55.9784 307.998 56.2066C350.428 57.9607 391.715 70.855 427.67 93.6726C466.444 118.279 497.415 153.41 516.968 194.961C536.521 236.513 543.847 282.77 538.092 328.331C532.336 373.891 513.736 416.873 484.464 452.257C455.192 487.64 416.457 513.965 372.782 528.156C329.107 542.346 282.297 543.818 237.817 532.397C193.338 520.977 153.026 497.136 121.59 463.66C92.4388 432.618 72.0365 394.478 62.3628 353.128C61.1047 347.751 64.6843 342.507 70.1094 341.472C75.5344 340.438 80.7486 344.004 82.0267 349.377C90.9763 387 109.617 421.694 136.169 449.969C165.007 480.679 201.987 502.549 242.791 513.025C283.594 523.502 326.537 522.153 366.602 509.135C406.667 496.117 442.201 471.968 469.054 439.508C495.907 407.049 512.97 367.619 518.249 325.824C523.529 284.029 516.808 241.595 498.872 203.477C480.935 165.359 452.523 133.132 416.954 110.559C384.203 89.7754 346.631 77.9664 307.997 76.2252C302.48 75.9765 298 71.5228 298 66Z" fill="#FF9900"/>
<path d="M298 94C298 88.4772 302.48 83.9756 307.997 84.2336C337.756 85.6252 366.937 93.2181 393.653 106.567C423.355 121.409 449.196 142.958 469.133 169.51C489.069 196.062 502.553 226.889 508.518 259.553C514.483 292.216 512.766 325.819 503.503 357.704C494.239 389.589 477.684 418.881 455.145 443.263C432.607 467.645 404.704 486.448 373.644 498.185C342.584 509.922 309.219 514.27 276.188 510.886C246.478 507.841 217.771 498.617 191.899 483.845C187.102 481.107 185.732 474.906 188.691 470.243C191.651 465.58 197.818 464.223 202.627 466.938C225.87 480.06 251.604 488.262 278.227 490.99C308.17 494.058 338.417 490.116 366.574 479.476C394.731 468.836 420.026 451.791 440.459 429.687C460.891 407.584 475.899 381.029 484.297 352.124C492.695 323.219 494.251 292.756 488.843 263.146C483.436 233.535 471.212 205.589 453.139 181.518C435.066 157.448 411.64 137.913 384.714 124.458C360.774 112.496 334.651 105.633 307.996 104.258C302.48 103.973 298 99.5228 298 94Z" fill="#4CAF50"/>
<path d="M298 122C298 116.477 302.48 111.972 307.995 112.269C329.983 113.452 351.613 118.532 371.87 127.298C395.189 137.389 416.194 152.151 433.588 170.674C450.982 189.197 464.397 211.087 473.004 234.995C481.611 258.902 485.228 284.32 483.633 309.679C482.038 335.038 475.263 359.802 463.727 382.442C452.191 405.082 436.139 425.119 416.561 441.315C396.982 457.512 374.293 469.526 349.892 476.615C328.697 482.773 306.6 485.101 284.638 483.519C279.13 483.123 275.249 478.091 275.941 472.612C276.634 467.133 281.637 463.284 287.148 463.645C306.395 464.906 325.741 462.804 344.313 457.409C366.089 451.082 386.339 440.36 403.812 425.905C421.286 411.45 435.612 393.568 445.907 373.362C456.202 353.157 462.249 331.056 463.672 308.423C465.096 285.791 461.868 263.106 454.186 241.77C446.505 220.433 434.533 200.896 419.009 184.365C403.485 167.834 384.739 154.659 363.927 145.653C346.178 137.972 327.247 133.462 307.994 132.301C302.481 131.969 298 127.523 298 122Z" fill="#FF5E3A"/>
</svg>
